<svg width="158" height="49" viewBox="0 0 158 49" fill="none" xmlns="http://www.w3.org/2000/svg">
<path d="M38.7451 24.5499L46.698 16.7658C48.5333 14.9695 48.5333 12.1752 46.698 10.3788L35.3804 21.4562L33.3412 19.4603L41.3961 11.5764C43.2314 9.78005 43.2314 6.98575 41.3961 5.18942L29.9765 16.3666L27.9373 14.3707L36.0941 6.38697C37.9294 4.59064 37.9294 1.79633 36.0941 0L24.5726 11.0774L17.2314 3.79226C15.3961 1.99593 12.5412 1.99593 10.7059 3.79226L21.3098 14.1711L19.1686 16.2668L11.8275 9.08147C9.99216 7.28514 7.13724 7.28514 5.30194 9.08147L15.9059 19.4603L13.8667 21.4562L6.52548 14.2709C4.69019 12.4745 1.83529 12.4745 0 14.2709L10.4 24.4501L2.44705 32.2342C0.611759 34.0305 0.611759 36.8249 2.44705 38.6212L13.7647 27.5438L15.8039 29.5397L7.74903 37.4236C5.91373 39.22 5.91373 42.0143 7.74903 43.8106L19.1686 32.6334L21.2078 34.6293L13.051 42.613C11.2157 44.4094 11.2157 47.2037 13.051 49L24.4706 37.8228L31.8117 45.1079C33.647 46.9043 36.502 46.9043 38.3373 45.1079L27.7333 34.7291L29.8745 32.6334L37.2157 39.8187C39.051 41.6151 41.9059 41.6151 43.7412 39.8187L33.1373 29.4399L35.1765 27.444L42.5176 34.6293C44.3529 36.4257 47.2079 36.4257 49.0431 34.6293L38.7451 24.5499ZM24.5726 17.3646L26.6118 19.3605L24.4706 21.4562L22.4314 19.4603L24.5726 17.3646ZM19.1686 26.3462L17.3333 24.5499L19.1686 22.7536L21.0039 24.6497L19.1686 26.3462ZM24.5726 31.5356L22.5333 29.5397L24.6745 27.444L26.7137 29.4399L24.5726 31.5356ZM28.1412 24.4501L29.9765 22.6538L31.8117 24.4501L29.9765 26.2464L28.1412 24.4501Z" fill="#0A5F83"/>
<path d="M38.7451 24.5499L46.698 16.7658C48.5333 14.9695 48.5333 12.1752 46.698 10.3788L35.3804 21.4562L33.3412 19.4603L41.3961 11.5764C43.2314 9.78005 43.2314 6.98575 41.3961 5.18942L29.9765 16.3666L27.9373 14.3707L36.0941 6.38697C37.9294 4.59064 37.9294 1.79633 36.0941 0L24.5726 11.0774L17.2314 3.79226C15.3961 1.99593 12.5412 1.99593 10.7059 3.79226L21.3098 14.1711L19.1686 16.2668L11.8275 9.08147C9.99216 7.28514 7.13724 7.28514 5.30194 9.08147L15.9059 19.4603L13.8667 21.4562L6.52548 14.2709C4.69019 12.4745 1.83529 12.4745 0 14.2709L10.4 24.4501L2.44705 32.2342C0.611759 34.0305 0.611759 36.8249 2.44705 38.6212L13.7647 27.5438L15.8039 29.5397L7.74903 37.4236C5.91373 39.22 5.91373 42.0143 7.74903 43.8106L19.1686 32.6334L21.2078 34.6293L13.051 42.613C11.2157 44.4094 11.2157 47.2037 13.051 49L24.4706 37.8228L31.8117 45.1079C33.647 46.9043 36.502 46.9043 38.3373 45.1079L27.7333 34.7291L29.8745 32.6334L37.2157 39.8187C39.051 41.6151 41.9059 41.6151 43.7412 39.8187L33.1373 29.4399L35.1765 27.444L42.5176 34.6293C44.3529 36.4257 47.2079 36.4257 49.0431 34.6293L38.7451 24.5499ZM24.5726 17.3646L26.6118 19.3605L24.4706 21.4562L22.4314 19.4603L24.5726 17.3646ZM19.1686 26.3462L17.3333 24.5499L19.1686 22.7536L21.0039 24.6497L19.1686 26.3462ZM24.5726 31.5356L22.5333 29.5397L24.6745 27.444L26.7137 29.4399L24.5726 31.5356ZM28.1412 24.4501L29.9765 22.6538L31.8117 24.4501L29.9765 26.2464L28.1412 24.4501Z" fill="#040000" fill-opacity="0.2"/>
<path d="M53.9391 19.3657C53.9391 18.6137 54.2191 18.0297 54.7791 17.6137C55.3391 17.1817 56.1311 16.9657 57.1551 16.9657V31.7977C57.1551 32.5657 56.8751 33.1577 56.3151 33.5737C55.7551 33.9897 54.9631 34.1977 53.9391 34.1977V19.3657ZM66.7315 34.1977C65.9315 34.1977 65.2675 34.0217 64.7395 33.6697C64.2275 33.3017 63.8835 32.7817 63.7075 32.1097L59.9395 17.3257C60.3235 17.0857 60.8195 16.9657 61.4275 16.9657C62.0195 16.9657 62.5075 17.1097 62.8915 17.3977C63.2755 17.6697 63.5315 18.0617 63.6595 18.5737L65.6755 27.6697L65.1955 29.5177L65.4115 29.5897L68.6755 18.0457C68.7715 17.7097 68.9395 17.4457 69.1795 17.2537C69.4355 17.0617 69.7395 16.9657 70.0915 16.9657C70.4435 16.9657 70.7475 17.0617 71.0035 17.2537C71.2595 17.4457 71.4355 17.7097 71.5315 18.0457L74.1475 27.8857L73.6915 29.8297L73.9555 29.9017L76.5475 18.5737C76.6595 18.0617 76.8995 17.6697 77.2675 17.3977C77.6515 17.1097 78.1475 16.9657 78.7555 16.9657C79.3475 16.9657 79.8515 17.0857 80.2675 17.3257L76.4755 32.1097C76.2995 32.7817 75.9475 33.3017 75.4195 33.6697C74.9075 34.0217 74.2515 34.1977 73.4515 34.1977L69.8035 20.8537L69.5875 20.9257L69.9715 22.3417L66.7315 34.1977ZM84.7478 34.1977C83.9318 34.1977 83.1798 34.0377 82.4918 33.7177C81.8198 33.3977 81.2758 32.9417 80.8598 32.3497C80.4598 31.7417 80.2598 31.0217 80.2598 30.1897C80.2598 29.3577 80.4758 28.6377 80.9078 28.0297C81.3398 27.4057 81.9238 26.9337 82.6598 26.6137C83.4118 26.2777 84.2358 26.1097 85.1318 26.1097C85.8678 26.1097 86.5238 26.2297 87.0998 26.4697C87.6918 26.6937 88.2358 27.0377 88.7318 27.5017L88.8518 27.3817C88.7078 27.2377 88.4598 27.0217 88.1078 26.7337V26.2537C88.1078 25.5977 87.8758 25.0777 87.4118 24.6937C86.9478 24.3097 86.2998 24.1177 85.4678 24.1177C83.9798 24.1177 82.8838 24.6617 82.1798 25.7497C81.8278 25.6377 81.5318 25.4617 81.2918 25.2217C81.0518 24.9657 80.9318 24.6937 80.9318 24.4057C80.9318 23.9257 81.1478 23.4857 81.5798 23.0857C82.0118 22.6857 82.5958 22.3657 83.3318 22.1257C84.0678 21.8857 84.8678 21.7657 85.7318 21.7657C87.4278 21.7657 88.7398 22.1657 89.6678 22.9657C90.5958 23.7497 91.0598 24.8217 91.0598 26.1817V32.1817C91.0598 32.8857 90.8358 33.3977 90.3878 33.7177C89.9398 34.0377 89.2358 34.1977 88.2758 34.1977V33.2137C88.5478 32.9417 88.7318 32.7417 88.8278 32.6137L88.7318 32.4937C88.2038 33.0537 87.6358 33.4777 87.0278 33.7657C86.4358 34.0537 85.6758 34.1977 84.7478 34.1977ZM85.5158 32.0137C86.3478 32.0137 86.9958 31.8537 87.4598 31.5337C87.9238 31.2137 88.1558 30.7577 88.1558 30.1657C88.1558 29.5897 87.9158 29.1337 87.4358 28.7977C86.9718 28.4617 86.3398 28.2937 85.5398 28.2937C84.8038 28.2937 84.2198 28.4617 83.7878 28.7977C83.3718 29.1177 83.1638 29.5737 83.1638 30.1657C83.1638 30.7737 83.3718 31.2377 83.7878 31.5577C84.2038 31.8617 84.7798 32.0137 85.5158 32.0137ZM93.7482 24.0697C93.7482 23.3337 93.9802 22.7657 94.4442 22.3657C94.9242 21.9657 95.6442 21.7657 96.6042 21.7657V23.2057C96.4122 23.4297 96.2202 23.6857 96.0282 23.9737L96.1722 24.0697C96.6522 23.3497 97.2682 22.7897 98.0202 22.3897C98.7722 21.9737 99.6042 21.7657 100.516 21.7657C101.332 21.7657 102.052 21.9497 102.676 22.3177C103.3 22.6857 103.78 23.1897 104.116 23.8297C104.468 24.4697 104.644 25.1897 104.644 25.9897V32.3737C104.644 33.0137 104.396 33.4777 103.9 33.7657C103.404 34.0537 102.652 34.1977 101.644 34.1977V26.4217C101.644 25.8137 101.46 25.3177 101.092 24.9337C100.74 24.5497 100.22 24.3577 99.5322 24.3577C98.7162 24.3577 98.0442 24.6137 97.5162 25.1257C96.9882 25.6217 96.7242 26.2457 96.7242 26.9977V32.3737C96.7242 33.0137 96.4842 33.4777 96.0042 33.7657C95.5242 34.0537 94.7722 34.1977 93.7482 34.1977V24.0697ZM110.554 19.9657H104.77C104.77 18.1097 105.61 17.1817 107.29 17.1817H119.554C119.554 19.0377 118.706 19.9657 117.01 19.9657H113.77V31.8217C113.77 32.5897 113.498 33.1817 112.954 33.5977C112.41 33.9977 111.61 34.1977 110.554 34.1977V19.9657ZM123.28 34.1977C122.24 34.1977 121.296 34.0137 120.448 33.6457C119.616 33.2617 118.96 32.7337 118.48 32.0617C118 31.3897 117.76 30.6297 117.76 29.7817V26.3977C117.76 25.5337 117.992 24.7497 118.456 24.0457C118.936 23.3417 119.592 22.7897 120.424 22.3897C121.256 21.9737 122.208 21.7657 123.28 21.7657C124.352 21.7657 125.304 21.9737 126.136 22.3897C126.984 22.7897 127.64 23.3417 128.104 24.0457C128.584 24.7497 128.824 25.5337 128.824 26.3977V29.7817C128.824 30.6297 128.576 31.3897 128.08 32.0617C127.6 32.7337 126.936 33.2617 126.088 33.6457C125.256 34.0137 124.32 34.1977 123.28 34.1977ZM123.28 31.6297C124.08 31.6297 124.704 31.4457 125.152 31.0777C125.616 30.7097 125.848 30.2137 125.848 29.5897V26.5417C125.848 25.8857 125.616 25.3577 125.152 24.9577C124.704 24.5417 124.08 24.3337 123.28 24.3337C122.496 24.3337 121.872 24.5417 121.408 24.9577C120.944 25.3577 120.712 25.8857 120.712 26.5417V29.5897C120.712 30.2137 120.944 30.7097 121.408 31.0777C121.872 31.4457 122.496 31.6297 123.28 31.6297ZM132.762 33.9817C132.314 33.9817 131.93 33.8457 131.61 33.5737C131.306 33.2857 131.154 32.9337 131.154 32.5177V18.6457C131.154 18.2297 131.306 17.8857 131.61 17.6137C131.914 17.3257 132.298 17.1817 132.762 17.1817H138.09C139.514 17.1817 140.77 17.4537 141.858 17.9977C142.962 18.5417 143.81 19.3097 144.402 20.3017C145.01 21.2777 145.314 22.3977 145.314 23.6617V27.4537C145.314 28.7177 145.01 29.8457 144.402 30.8377C143.794 31.8297 142.938 32.6057 141.834 33.1657C140.746 33.7097 139.498 33.9817 138.09 33.9817H132.762ZM137.85 31.2217C139.242 31.2217 140.298 30.9097 141.018 30.2857C141.738 29.6457 142.098 28.7097 142.098 27.4777V23.6137C142.098 22.4137 141.738 21.5017 141.018 20.8777C140.298 20.2537 139.242 19.9417 137.85 19.9417H134.37V31.2217H137.85ZM152.131 34.1977C151.091 34.1977 150.147 34.0137 149.299 33.6457C148.467 33.2617 147.811 32.7337 147.331 32.0617C146.851 31.3897 146.611 30.6297 146.611 29.7817V26.3977C146.611 25.5337 146.843 24.7497 147.307 24.0457C147.787 23.3417 148.443 22.7897 149.275 22.3897C150.107 21.9737 151.059 21.7657 152.131 21.7657C153.203 21.7657 154.155 21.9737 154.987 22.3897C155.835 22.7897 156.491 23.3417 156.955 24.0457C157.435 24.7497 157.675 25.5337 157.675 26.3977V29.7817C157.675 30.6297 157.427 31.3897 156.931 32.0617C156.451 32.7337 155.787 33.2617 154.939 33.6457C154.107 34.0137 153.171 34.1977 152.131 34.1977ZM152.131 31.6297C152.931 31.6297 153.555 31.4457 154.003 31.0777C154.467 30.7097 154.699 30.2137 154.699 29.5897V26.5417C154.699 25.8857 154.467 25.3577 154.003 24.9577C153.555 24.5417 152.931 24.3337 152.131 24.3337C151.347 24.3337 150.723 24.5417 150.259 24.9577C149.795 25.3577 149.563 25.8857 149.563 26.5417V29.5897C149.563 30.2137 149.795 30.7097 150.259 31.0777C150.723 31.4457 151.347 31.6297 152.131 31.6297Z" fill="black"/>
</svg>
