<svg width="155" height="154" viewBox="0 0 155 154" fill="none" xmlns="http://www.w3.org/2000/svg">
<g filter="url(#filter0_d_146_476)">
<path d="M118.037 64.8959C117.715 64.8959 117.715 65.4938 118.037 65.4938C118.804 65.4938 129.482 65.3175 130.379 65.1412C130.46 65.129 130.535 65.0878 130.589 65.0252C130.643 64.9626 130.672 64.8827 130.672 64.8001C130.672 64.7175 130.643 64.6377 130.589 64.5751C130.535 64.5125 130.46 64.4713 130.379 64.459C127.565 64.0911 121.134 64.8346 118.037 64.8959ZM122.315 80.5489C121.962 80.5489 122.023 81.1391 122.361 81.1545C124.859 81.2388 128.754 81.1085 131.306 80.9935C131.774 80.9935 131.827 80.2269 131.306 80.2269C128.447 80.2423 125.181 80.2806 122.315 80.5489ZM122.644 54.1106C122.57 54.1138 122.499 54.1439 122.445 54.1952C122.392 54.2466 122.358 54.3158 122.352 54.3898C122.345 54.4639 122.366 54.5378 122.41 54.5979C122.454 54.6579 122.518 54.6999 122.59 54.7162C123.963 54.8848 128.416 55.0611 129.758 54.4939C129.826 54.4598 129.882 54.4044 129.916 54.3358C129.951 54.2673 129.962 54.1895 129.948 54.1141C129.934 54.0388 129.896 53.97 129.84 53.9182C129.783 53.8664 129.711 53.8343 129.635 53.827C127.857 53.7196 125.005 54.2869 122.644 54.1106ZM113.89 68.9203C120.36 68.8283 127.688 68.3761 134.219 67.7782C134.625 67.7782 134.587 67.0116 134.165 67.0116C127.742 67.1726 120.237 67.5942 113.852 68.2534C113.763 68.2585 113.681 68.2985 113.622 68.3646C113.563 68.4308 113.532 68.5176 113.538 68.606C113.543 68.6945 113.583 68.7773 113.649 68.8362C113.715 68.8951 113.802 68.9254 113.89 68.9203ZM123.165 34.7782C124.967 34.6402 126.768 34.5329 128.531 34.3183C129.037 34.2646 128.907 33.5517 128.409 33.5517C126.615 33.6897 124.821 33.9197 123.043 34.1266C122.629 34.1726 122.744 34.8089 123.165 34.7782ZM112.648 50.7684C112.265 50.7684 112.25 51.42 112.648 51.4506C116.982 51.6525 121.324 51.3489 125.588 50.5461C126.071 50.4618 125.994 49.6952 125.503 49.7796C121.258 50.5036 116.955 50.8346 112.648 50.7684ZM126.914 38.45C127.581 38.6109 127.68 37.5224 127.067 37.6298C124.075 38.1148 121.043 38.3022 118.014 38.1893C117.608 38.1893 117.516 38.7796 117.93 38.8256C120.927 39.1265 123.952 39 126.914 38.45ZM110.31 68.56C109.712 68.3301 106.953 68.7134 106.179 68.7977C105.803 68.7977 105.788 69.4032 106.179 69.3956L109.314 69.2959C110.763 69.2423 110.755 68.7363 110.31 68.56ZM113.476 101.729C112.832 101.575 108.256 101.92 107.505 101.966C107.106 101.966 107.183 102.58 107.581 102.572C108.394 102.572 112.848 102.572 113.553 102.35C113.867 102.242 113.76 101.79 113.476 101.729ZM107.497 98.4861C109.651 98.5858 114.986 98.6778 117.14 98.1642C117.191 98.1638 117.24 98.1529 117.286 98.1321C117.332 98.1114 117.373 98.0812 117.406 98.0436C117.44 98.0061 117.465 97.9619 117.481 97.914C117.496 97.8661 117.501 97.8155 117.496 97.7654C117.49 97.7154 117.475 97.667 117.449 97.6235C117.424 97.5799 117.39 97.5421 117.349 97.5125C117.309 97.4829 117.262 97.4622 117.213 97.4516C117.164 97.4411 117.113 97.441 117.064 97.4513C113.913 97.4513 110.993 97.9802 107.589 97.8422C107.183 97.8269 107.075 98.4632 107.497 98.4861ZM114.933 84.8569C115.393 84.7726 115.354 84.0903 114.871 84.0903C111.468 84.4353 110.755 84.5196 107.267 84.6576C106.93 84.6576 106.892 85.2402 107.267 85.2632C109.829 85.4333 112.403 85.2969 114.933 84.8569ZM119.655 80.0353C115.485 80.1886 111.154 80.8938 106.8 81.0471C106.722 81.0591 106.651 81.0985 106.6 81.1583C106.548 81.2181 106.52 81.2942 106.52 81.3729C106.52 81.4517 106.548 81.5278 106.6 81.5875C106.651 81.6473 106.722 81.6867 106.8 81.6987C110.41 81.6987 116.22 81.5301 119.739 80.7482C119.812 80.7157 119.873 80.6605 119.913 80.5908C119.953 80.521 119.969 80.4403 119.96 80.3606C119.95 80.2809 119.916 80.2063 119.861 80.1477C119.806 80.0892 119.734 80.0498 119.655 80.0353ZM133.859 99.8506C133.797 99.8506 129.589 100.196 128.869 100.173C128.8 100.185 128.738 100.219 128.69 100.269C128.643 100.32 128.613 100.385 128.605 100.453C128.598 100.522 128.612 100.592 128.647 100.652C128.682 100.712 128.736 100.759 128.8 100.786C129.658 100.947 133.276 101.008 134.02 100.38C134.057 100.338 134.083 100.288 134.095 100.234C134.108 100.179 134.106 100.123 134.089 100.069C134.073 100.016 134.043 99.9679 134.003 99.9295C133.963 99.8912 133.913 99.864 133.859 99.8506ZM135.216 83.1322C129.903 83.4771 123.97 83.6764 118.681 84.1287C118.267 84.1287 118.344 84.7496 118.742 84.7726C121.602 84.8569 131.774 84.3356 135.285 83.891C135.335 83.8872 135.383 83.8734 135.428 83.8504C135.473 83.8273 135.512 83.7956 135.545 83.757C135.577 83.7184 135.601 83.6737 135.615 83.6257C135.63 83.5776 135.635 83.5271 135.629 83.4771C135.62 83.3767 135.571 83.2842 135.493 83.2196C135.416 83.155 135.316 83.1236 135.216 83.1322ZM115.262 65.7008C115.364 65.7008 115.461 65.6604 115.533 65.5886C115.605 65.5167 115.646 65.4192 115.646 65.3175C115.646 65.2159 115.605 65.1184 115.533 65.0465C115.461 64.9746 115.364 64.9343 115.262 64.9343C111.958 65.0186 108.624 65.0416 105.297 65.2945C105.226 65.3104 105.162 65.3502 105.116 65.4074C105.07 65.4645 105.045 65.5356 105.045 65.6088C105.045 65.6821 105.07 65.7531 105.116 65.8103C105.162 65.8674 105.226 65.9072 105.297 65.9231C108.639 65.9844 111.958 65.8081 115.262 65.7008ZM128.332 96.6464C127.167 96.6464 122.966 96.9454 121.97 97.1217C121.648 97.1754 121.602 97.7043 121.97 97.7196C123.05 97.7733 127.228 97.505 128.439 97.3977C128.907 97.413 128.807 96.6464 128.332 96.6464ZM126.094 100.947L116.458 101.56C116.021 101.56 116.128 102.227 116.558 102.204C118.428 102.12 124.446 101.882 126.132 101.652C126.508 101.606 126.515 100.947 126.094 100.947ZM119.195 34.3183C116.366 33.9963 107.489 34.5329 104.477 34.8395C104.063 34.8778 104.032 35.5217 104.477 35.4834C109.429 35.1615 114.25 35.0541 119.202 35.0695C119.289 35.051 119.366 35.0032 119.422 34.9342C119.477 34.8652 119.506 34.7792 119.506 34.6907C119.505 34.6023 119.473 34.5169 119.417 34.449C119.36 34.3811 119.281 34.3349 119.195 34.3183ZM120.015 55.0074C120.498 54.9384 120.321 54.2409 119.839 54.2409C114.905 54.803 109.941 55.059 104.975 55.0074C104.903 55.0189 104.838 55.0557 104.79 55.1112C104.743 55.1667 104.717 55.2373 104.717 55.3102C104.717 55.3832 104.743 55.4537 104.79 55.5092C104.838 55.5647 104.903 55.6015 104.975 55.613C109.996 55.8548 115.029 55.6522 120.015 55.0074ZM114.81 38.9559C114.86 38.9511 114.909 38.9364 114.954 38.9125C114.999 38.8887 115.038 38.8562 115.07 38.817C115.102 38.7778 115.126 38.7327 115.141 38.6841C115.155 38.6356 115.16 38.5847 115.155 38.5343C115.15 38.4839 115.135 38.4349 115.112 38.3902C115.088 38.3455 115.055 38.306 115.016 38.2739C114.977 38.2418 114.932 38.2178 114.883 38.2033C114.835 38.1888 114.784 38.184 114.733 38.1893C111.353 38.6109 108.149 38.6263 104.814 38.9176C104.462 38.9559 104.423 39.5308 104.814 39.5461C108.156 39.6002 111.498 39.4028 114.81 38.9559ZM105.312 51.0904C104.929 51.0904 104.921 51.6959 105.358 51.7113C106.734 51.8408 108.117 51.8767 109.498 51.8186C109.56 51.7908 109.613 51.7456 109.65 51.6885C109.687 51.6314 109.707 51.5647 109.707 51.4966C109.707 51.4285 109.687 51.3619 109.65 51.3048C109.613 51.2476 109.56 51.2025 109.498 51.1747C109.36 51.098 106.018 51.0904 105.312 51.0904ZM95.7459 55.5057C96.1905 55.5057 97.8386 52.7768 98.7661 51.8416C99.1034 51.5043 98.5515 50.9371 98.2065 51.259C97.2286 52.1406 96.3819 53.1577 95.6922 54.2792L93.7529 52.4932C93.3543 52.1252 92.8407 52.7538 93.2086 53.1294C93.5766 53.505 95.1786 55.5057 95.7459 55.5057ZM90.5027 42.9879C93.6456 43.1719 96.911 43.1106 100.361 43.1336C100.606 43.1336 100.751 42.4514 100.361 34.3106C100.361 33.7203 100.307 33.2834 100.299 33.1224C100.301 33.0987 100.298 33.0748 100.29 33.0524C100.282 33.0299 100.27 33.0094 100.253 32.9921C100.031 32.7545 98.5821 32.7698 95.3243 32.8541C89.8435 32.9845 89.2379 32.9461 89.2379 33.2604C89.2149 33.3217 89.5598 42.896 90.5027 42.9879ZM90.7173 42.4207C90.3341 40.374 90.0581 36.0507 89.8205 33.6284C92.0511 33.7587 97.1334 33.5057 99.6936 33.4444C99.6936 33.4444 99.8316 40.259 99.8929 42.459C96.8881 42.39 93.7529 42.275 90.6867 42.3824L90.7173 42.4207Z" fill="#0A5F83"/>
<path d="M101.418 57.5063C102.062 57.2533 101.311 50.1091 101.204 48.231C101.198 48.1924 101.179 48.157 101.15 48.1314C100.69 47.7327 90.9625 48.2617 90.4719 48.3C89.9813 48.3383 90.4719 51.0059 90.5562 52.8226C90.7325 57.3453 90.9395 57.7362 91.1694 57.7669C92.8405 58.0045 99.8851 58.1042 101.418 57.5063ZM90.9395 48.9286C94.2586 48.7139 97.6238 48.6986 100.613 48.6833C100.69 50.477 100.813 55.5286 100.966 56.893C97.8418 57.2161 94.6979 57.3058 91.5604 57.1613C91.6907 56.0192 91.0545 50.224 90.9395 48.9286ZM97.1792 68.284L98.9576 66.6742C99.0094 66.5866 99.0322 66.4848 99.0228 66.3834C99.0133 66.282 98.9721 66.1863 98.9049 66.1097C98.8377 66.0332 98.7481 65.9799 98.6488 65.9574C98.5495 65.9348 98.4456 65.9443 98.352 65.9843C97.6238 66.4328 96.9631 66.9825 96.3896 67.6171L94.7952 66.1453C94.7088 66.065 94.5941 66.0223 94.4762 66.0266C94.3583 66.0309 94.247 66.0819 94.1667 66.1683C94.0863 66.2547 94.0437 66.3694 94.048 66.4873C94.0523 66.6052 94.1032 66.7165 94.1896 66.7968L95.7227 68.3299C94.343 69.7864 93.7374 70.6986 93.8754 71.1125C94.0133 71.5265 94.5116 71.3425 94.6419 71.1585C95.1785 70.4993 95.7841 69.7481 96.4356 69.0505C97.0816 69.7557 97.7982 70.3928 98.5743 70.9516C98.6544 70.9723 98.7386 70.9711 98.818 70.948C98.8975 70.925 98.9692 70.8809 99.0257 70.8205C99.0822 70.7601 99.1214 70.6855 99.1391 70.6047C99.1567 70.5239 99.1523 70.4398 99.1262 70.3613C98.5492 69.6048 97.8968 68.9087 97.1792 68.284ZM97.5855 35.422C96.361 36.4928 95.3606 37.7954 94.6419 39.2547C94.0645 38.5635 93.3997 37.9502 92.6642 37.4303C92.2119 37.116 91.6294 37.7139 92.074 38.0512C92.9484 38.824 93.7656 39.6592 94.5193 40.5502C94.7186 40.7571 94.9102 40.6498 95.0788 40.4275C95.9136 38.8012 96.9433 37.2824 98.145 35.9049C98.513 35.4986 97.9841 35.0463 97.5855 35.422ZM97.3402 85.47C97.7388 85.194 99.2565 82.2658 100.138 81.2693C100.483 80.886 99.8851 80.3571 99.4942 80.7634C98.4448 81.8445 97.545 83.0614 96.8189 84.3815L95.0328 82.8484C94.6419 82.5188 94.1207 83.109 94.5269 83.5C94.9332 83.8909 96.6809 86.0373 97.3402 85.47ZM103.189 95.2972C102.898 94.7223 92.4113 95.2972 92.3116 95.2972C92.2887 95.3 92.2669 95.3085 92.2482 95.3219C92.2294 95.3352 92.2144 95.3531 92.2043 95.3738C91.8517 95.9411 92.2043 105.163 92.4572 106.021C92.7562 107.064 102.921 106.198 103.427 106.244C103.442 106.247 103.458 106.247 103.473 106.243C103.488 106.24 103.502 106.233 103.515 106.224C103.527 106.214 103.537 106.202 103.545 106.189C103.552 106.175 103.556 106.159 103.557 106.144C103.718 104.971 103.227 95.3738 103.189 95.2972ZM92.8022 95.8568C95.8684 95.9871 99.4942 95.7954 102.606 95.7878C102.652 97.0679 102.928 104.58 102.967 105.592C99.5632 105.745 96.7039 105.692 93.0782 105.592C93.1165 104.312 92.8482 97.0219 92.8022 95.8798V95.8568Z" fill="#0A5F83"/>
<path d="M96.5045 100.824C97.0488 100.824 99.8313 101.016 100.054 100.893C100.112 100.86 100.162 100.813 100.2 100.757C100.238 100.702 100.262 100.638 100.271 100.571C100.28 100.504 100.273 100.436 100.251 100.372C100.23 100.309 100.193 100.251 100.146 100.203C99.7393 99.7739 97.1714 99.8659 96.7421 99.9502C96.1596 100.057 96.0522 100.28 96.0676 100.448C96.088 100.551 96.1421 100.643 96.2213 100.712C96.3005 100.78 96.4002 100.819 96.5045 100.824ZM97.5394 78.3258C95.0251 78.3718 92.3805 78.4638 91.9435 78.4944C91.7749 78.4944 91.5986 78.6401 91.5756 80.2345C91.5756 82.1432 91.9052 88.1913 92.6718 88.245C94.2049 88.3599 102.131 88.3906 103.15 88.3139C103.311 88.3139 103.442 88.3139 103.15 84.3279C102.99 82.2735 102.629 78.5404 102.629 78.5404C102.599 78.3871 102.583 78.2491 97.5394 78.3258ZM102.054 79.0004C102.238 81.8596 102.338 84.7878 102.645 87.6624H92.8941C92.5951 84.8951 92.3958 82.0436 92.1812 79.1153L102.054 79.0004ZM93.7526 74.0101C96.8648 74.0101 102.07 73.5885 102.116 73.5655C102.606 73.3126 102.116 66.3906 101.955 63.4317C101.955 62.9028 99.2488 62.8952 97.0028 62.9795C96.0216 62.9795 91.1463 63.2401 91.1617 63.9377C91.4223 74.2018 91.361 73.7035 91.5526 73.8108C92.2699 73.998 93.0133 74.0653 93.7526 74.0101ZM92.1352 73.2436C91.9589 70.2234 91.8975 67.0192 91.7749 64.045C94.958 63.7623 98.1542 63.6548 101.349 63.723C101.349 64.7732 101.556 71.7565 101.686 72.9216C100.552 72.9983 93.3233 73.0519 92.1582 73.2512L92.1352 73.2436Z" fill="#0A5F83"/>
<path d="M149.711 85.3551C147.703 30.723 148.546 31.183 148.178 30.861C147.657 30.3704 143.632 30.6924 142.643 30.746L142.229 22.3677C142.249 22.3171 142.256 22.2626 142.251 22.2086C142.245 22.1547 142.226 22.103 142.196 22.0578C142.166 22.0127 142.125 21.9755 142.078 21.9493C142.03 21.9232 141.977 21.9089 141.923 21.9077C125.825 21.7084 109.26 22.7739 92.6489 23.9008C88.1723 24.215 83.5193 24.491 78.966 24.9739C78.9234 24.9671 78.8799 24.9698 78.8384 24.9818C78.797 24.9939 78.7588 25.0149 78.7266 25.0435C78.6943 25.0721 78.6688 25.1075 78.6519 25.1472C78.6349 25.1869 78.627 25.2298 78.6287 25.2729C79.4719 45.7398 81.9249 78.8241 86.1639 115.457C86.2099 115.879 89.7054 115.511 92.8482 115.304C92.8893 116.206 93.0518 117.098 93.3311 117.956C93.7911 118.539 150.654 115.013 150.585 112.591C150.339 103.492 150.01 94.2777 149.711 85.3551ZM145.403 109.256C125.243 112.322 107.114 113.181 86.8691 114.929C82.8601 80.1962 81.212 56.3718 79.2036 25.5105C85.428 25.1426 108.448 23.0269 141.7 22.59C142.528 44.8736 145.61 106.803 145.38 109.256H145.403ZM49.1779 56.5558C48.6566 56.5558 48.6643 57.5676 48.9096 57.9509C48.9379 58.007 48.982 58.0536 49.0365 58.0849C49.091 58.1163 49.1534 58.131 49.2162 58.1272C49.6838 58.0736 49.6608 56.6094 49.1779 56.5558ZM46.4413 60.9864C46.7709 61.0708 47.6601 61.1244 47.8671 60.8178C48.1583 60.3885 47.3688 56.4945 47.2691 56.2185C47.2486 56.1622 47.2088 56.115 47.1567 56.0853C47.1047 56.0556 47.0437 56.0454 46.9848 56.0564C46.9259 56.0675 46.8729 56.0991 46.8351 56.1456C46.7973 56.1921 46.7773 56.2506 46.7786 56.3105C46.7786 57.008 47.0928 59.3767 47.2155 60.3655L46.4489 60.4115C46.3929 60.4354 46.345 60.475 46.3111 60.5256C46.2771 60.5762 46.2587 60.6356 46.2578 60.6965C46.257 60.7574 46.2739 60.8172 46.3065 60.8687C46.3391 60.9202 46.3859 60.9611 46.4413 60.9864ZM48.5263 55.1223C48.7532 55.0602 48.9918 55.0542 49.2215 55.105C49.4512 55.1557 49.6652 55.2617 49.8448 55.4136C50.1437 55.6819 50.7186 55.1683 49.8984 54.6471C49.3082 54.2485 47.9284 54.1105 48.074 54.8157C48.0978 54.9139 48.1573 54.9997 48.2409 55.0564C48.3245 55.1131 48.4263 55.1366 48.5263 55.1223Z" fill="#0A5F83"/>
<path d="M71.0015 82.9863C66.0726 78.1264 57.2036 72.4156 49.2315 71.2811C49.3635 70.8255 49.3635 70.3417 49.2315 69.886C49.8383 69.3788 50.4024 68.8224 50.9179 68.2226C52.014 66.9348 51.991 65.6776 50.4273 66.3139C51.9604 62.9257 51.9604 55.5822 51.4085 51.4581C53.9764 53.0602 58.3074 51.5195 57.7785 48.3919C61.2663 49.4421 63.5353 42.5125 59.1046 41.263C59.7255 36.0198 53.0106 35.2609 50.9562 38.3195C49.7987 34.939 44.4789 36.7174 44.8621 39.3697C42.4628 36.794 37.2809 37.6909 36.5604 40.9028C34.3911 38.9327 30.8113 39.7683 31.1256 42.6735C27.6914 41.0791 25.8747 45.1878 28.5423 46.5062C26.8329 47.4261 26.8865 51.2129 29.5081 51.2129C29.5081 53.7425 31.0412 59.5376 34.8357 62.7111C35.2419 66.2602 34.5137 68.0769 33.2489 71.3654C20.7388 73.2665 11.2412 83.0247 6.97923 95.1285C2.1193 108.926 4.42661 121.958 18.8301 124.702C18.8001 126.543 18.5844 128.377 18.1862 130.175C18.179 130.243 18.1965 130.311 18.2355 130.367C18.2745 130.423 18.3324 130.463 18.3985 130.48C18.4647 130.497 18.5346 130.489 18.5956 130.458C18.6566 130.428 18.7044 130.376 18.7304 130.313C19.2436 128.527 19.5219 126.682 19.5583 124.825C23.0283 125.34 26.5732 124.799 29.7315 123.272C32.8897 121.745 35.515 119.302 37.2656 116.262C39.4846 117.105 41.7495 117.822 44.0496 118.409C51.2858 120.455 60.722 122.487 69.66 120.064C69.4837 124.349 69.2384 127.784 68.8551 131.195C68.8551 131.532 69.3227 131.632 69.3764 131.294C69.6754 129.501 70.4189 121.628 70.3729 119.857C76.0607 118.11 79.8628 114.162 80.798 109.034C82.4307 100.341 78.7513 90.5829 71.0015 82.9863ZM38.4461 49.971C38.6454 52.2094 38.4461 53.8038 37.7639 54.8386C37.5109 55.2142 37.1276 55.6052 36.798 55.6052C36.5451 55.3292 34.8893 53.6122 33.3256 54.6163C32.306 55.2832 32.26 56.5787 33.2259 58.2651C33.9162 59.2894 34.4101 60.4331 34.6823 61.6379C31.7465 58.4491 30.8496 55.4595 30.175 51.1745C30.9542 51.034 31.6655 50.6407 32.1987 50.0554C33.5402 52.0484 36.821 51.6498 38.4461 49.971ZM33.6935 55.1223C34.7283 54.486 35.6865 55.2526 36.5604 56.0191C37.074 56.4714 37.9172 55.8351 38.3158 55.2526C39.3583 53.8115 39.2663 51.4198 39.1283 50.224C39.8724 50.9326 40.8605 51.3278 41.8879 51.3278C42.9154 51.3278 43.9035 50.9326 44.6475 50.224C44.8008 52.4317 49.4308 52.9376 50.6496 51.1055C51.2092 54.9383 51.4775 63.2247 49.6224 66.6972C48.0893 67.3717 44.6015 68.9125 42.8691 68.2303C41.382 67.64 40.6308 65.371 38.8984 64.3975C37.7332 63.7536 36.7367 64.4818 37.5492 65.785C39.6036 69.0505 39.4196 70.2923 37.7945 73.6498C36.3703 73.2616 35.0383 72.5917 33.8775 71.6797C35.5639 69.2651 36.0238 64.9571 35.6022 62.0902C35.2266 59.5376 34.8357 59.6909 33.8238 57.8052C33.3562 57.031 32.9423 55.5975 33.6935 55.1223ZM46.6252 70.5836C46.564 70.6119 46.5154 70.6617 46.4884 70.7235C46.4614 70.7852 46.458 70.8547 46.4787 70.9189C46.4995 70.983 46.543 71.0373 46.601 71.0716C46.6591 71.1058 46.7277 71.1177 46.7938 71.1048C47.4512 70.9874 48.0743 70.7256 48.6182 70.3383C48.6624 71.0531 48.4741 71.763 48.0816 72.362C47.9437 72.5536 48.189 73.1285 48.6872 72.4156C48.6489 74.5313 47.5681 77.1452 45.4907 78.1724C44.0828 77.9179 42.7429 77.3744 41.5555 76.5762C40.3681 75.778 39.359 74.7424 38.5918 73.5348C40.8914 69.5947 38.8677 66.6358 38.1931 65.4094C37.8175 64.7041 38.0092 64.5968 38.6224 64.9954C40.0712 65.9153 41.3437 68.4832 42.7464 68.8282C45.391 69.4644 48.6489 67.87 50.2433 67.1571C51.0712 66.7815 51.5541 66.5285 50.5576 67.778C49.2238 69.4261 48.4649 69.771 46.6252 70.5836ZM14.1848 103.3C14.1571 103.362 14.1527 103.432 14.1726 103.498C14.1924 103.563 14.2352 103.619 14.2929 103.655C14.3507 103.692 14.4196 103.706 14.487 103.696C14.5544 103.685 14.6159 103.651 14.6601 103.599C21.3827 93.0052 32.5053 85.6539 38.2315 74.3167C39.1207 76.2944 42.9228 78.8393 45.2684 78.8393C45.2684 80.748 45.0768 83.017 44.8775 85.194C42.5778 84.6651 36.3611 82.7181 35.2419 80.1731C35.1116 79.8588 34.6057 80.0735 34.7283 80.3877C35.7785 83.2316 42.2635 85.516 44.8085 85.9989C44.2709 91.7265 43.206 97.3924 41.6273 102.924C40.4698 107.064 38.9827 112.069 36.8363 115.772C35.1252 118.816 32.507 121.25 29.3467 122.735C26.1863 124.221 22.6413 124.683 19.2057 124.058C5.05519 121.574 2.92418 108.811 7.73045 95.3278C12.2224 82.6951 22.0573 73.8031 33.4022 72.1167C34.6354 73.026 35.9835 73.7683 37.4113 74.3243C31.6621 85.4163 20.7005 92.6985 14.1848 103.3ZM42.2865 103.246C49.7352 100.107 57.6494 98.2141 65.7123 97.6428C68.0119 97.4895 70.3116 97.4971 72.6112 97.4971C72.9485 97.4971 72.9562 96.9452 72.6112 96.9452C71.0474 96.8367 69.479 96.8086 67.9123 96.8609C67.5367 93.7947 62.0099 84.8491 60.1318 82.3731C60.0837 82.3277 60.0209 82.301 59.9548 82.298C59.8887 82.2949 59.8238 82.3158 59.7717 82.3567C59.7197 82.3975 59.6841 82.4557 59.6714 82.5207C59.6587 82.5856 59.6698 82.6529 59.7025 82.7104C63.4663 87.9842 66.5095 94.6992 67.1151 96.8916C60.3771 97.1445 49.9827 98.7389 42.5012 102.403C43.2064 99.8198 45.9353 89.1647 45.9966 78.64C48.1046 77.6972 49.6071 74.286 49.4308 71.994C57.3787 73.8041 64.6683 77.7846 70.4879 83.4923C77.3179 90.1842 81.5032 98.8233 80.2154 108.214C79.5332 113.579 75.7234 117.734 70.0356 119.244C60.2315 121.927 50.1437 119.597 40.4621 116.592C39.5249 116.276 38.5702 116.015 37.6029 115.81C39.562 111.781 41.1304 107.574 42.2865 103.246Z" fill="#0A5F83"/>
<path d="M41.911 53.8958C42.1091 53.6031 42.3733 53.361 42.6822 53.1893C42.9911 53.0175 43.3362 52.9208 43.6894 52.907C44.2489 52.907 44.2183 52.0638 43.6894 52.1404C43.2341 52.1883 42.7957 52.3395 42.4078 52.5827C42.0199 52.8258 41.6926 53.1543 41.451 53.5432C41.2517 53.8575 41.6963 54.2024 41.911 53.8958ZM43.72 56.0192C43.4057 56.2721 43.4287 57.5523 43.904 57.5523C44.0127 57.5409 44.1143 57.4931 44.1923 57.4165C44.2703 57.3399 44.32 57.2391 44.3333 57.1307C44.5096 56.4638 44.0573 55.7815 43.72 56.0192ZM43.0455 62.3509C43.0311 62.2909 42.9986 62.2369 42.9524 62.1961C42.9062 62.1554 42.8485 62.1299 42.7873 62.1232C42.726 62.1165 42.6642 62.1288 42.6102 62.1586C42.5563 62.1884 42.5128 62.2341 42.4859 62.2895C42.4092 62.3969 42.2636 62.7265 42.5855 63.3934C42.8041 63.8474 43.1813 64.2056 43.6459 64.4005C44.1105 64.5954 44.6305 64.6135 45.1075 64.4512C45.1721 64.4256 45.225 64.3771 45.2562 64.315C45.2874 64.2529 45.2948 64.1814 45.2768 64.1143C45.2588 64.0471 45.2168 63.9889 45.1588 63.9507C45.1007 63.9125 45.0306 63.8969 44.9618 63.907C43.8733 64.1216 43.2448 63.4317 43.0455 62.3509Z" fill="#0A5F83"/>
</g>
<defs>
<filter id="filter0_d_146_476" x="-3" y="0.0610352" width="161.31" height="161.31" filterUnits="userSpaceOnUse" color-interpolation-filters="sRGB">
<feFlood flood-opacity="0" result="BackgroundImageFix"/>
<feColorMatrix in="SourceAlpha" type="matrix" values="0 0 0 0 0 0 0 0 0 0 0 0 0 0 0 0 0 0 127 0" result="hardAlpha"/>
<feOffset dy="4"/>
<feGaussianBlur stdDeviation="2"/>
<feComposite in2="hardAlpha" operator="out"/>
<feColorMatrix type="matrix" values="0 0 0 0 0 0 0 0 0 0 0 0 0 0 0 0 0 0 0.25 0"/>
<feBlend mode="normal" in2="BackgroundImageFix" result="effect1_dropShadow_146_476"/>
<feBlend mode="normal" in="SourceGraphic" in2="effect1_dropShadow_146_476" result="shape"/>
</filter>
</defs>
</svg>
